<svg width="176" height="172" viewBox="0 0 176 172" xmlns="http://www.w3.org/2000/svg" xmlns:xlink="http://www.w3.org/1999/xlink"><title>编组 2备份 2</title><defs><radialGradient cx="38.1747213%" cy="86.0776601%" fx="38.1747213%" fy="86.0776601%" r="97.067379%" gradientTransform="translate(0.381747,0.860777),scale(0.855365,1.000000),rotate(-46.300512),translate(-0.381747,-0.860777)" id="radialGradient-1"><stop stop-color="#178F67" offset="0"/><stop stop-color="#31CC79" stop-opacity=".55" offset="54.6847684%"/><stop stop-color="#53E68D" stop-opacity=".8" offset="100%"/></radialGradient><path d="M76.5669734 710542736e-23H77.1322485 77.6317133L78.1408771.00258488427 78.6596574.00531653925 79.1879717.00906258891 79.7257374.0138642228 80.2728723.0197626306 80.8292937.0267990018 81.2053598.0321424584l.3801323.0058797288L82.1632615.0478739881 82.7500426.0590010511 83.3457529.0714445656 83.7478131.0804919445 84.3582221.0952210775 84.9773405.111376501 85.6050857.128999405 86.0283344.141583614 86.6702744.16174385 87.3206213.183481406l.4381944.015388332L88.2006854.214989611 88.646206.231853231 89.095353.249472801 89.5481021.267860525 90.0044287.287028607 90.6955731.317270601 91.1607368.338442975 91.8650223.371748612 92.3388702.395001554 92.8161492.419108079 93.5384472.456895037 94.0241967.483188918 94.5132916.510379099 95.0057075.538477785 95.50142.567497179l.4989846.029952306L96.5026369.628346909 97.0080925.660201654 97.5167469.693025925 98.0285757.726831926 98.5435545.761631861C117.034398 2.0253048 121.931513 15.3414752 122.4526 16.9348664L122.480007 17.0204228 122.501293 17.0905166 130.528463 17.527597C130.956829 17.527597 131.304088 17.8748563 131.304088 18.3032223 131.304088 18.6102515 131.125693 18.8756143 130.866902 19.001311 122.627285 23.459864 120.110054 32.5194451 121.589956 38.4207668 122.066913 40.3227016 122.807951 41.9576385 123.632928 43.6857144L124.154166 44.7734635C126.06382 48.7676736 128.207925 53.6041208 128.558054 63.3380184 129.341811 85.1272154 110.188775 104.710669 87.5256709 104.710669L87.2776773 104.710768 86.7483602 104.711559 85.8710598 104.714228 85.2306429 104.716996 84.1866928 104.722631 83.4351761 104.727377 82.6392196 104.732913 81.3619599 104.742701 79.9847105 104.754268 78.5074713 104.767614 76.3822793 104.788178 74.6717306 104.805677 71.5986165 104.838796 68.247753 104.876858 64.6191401 104.919864 62.3086527 104.94804 59.072463 104.988376 54.7772515 105.043245 50.2042906 105.103058 46.3459423 105.154467 40.2251205 105.237512 35.9223732 105.29683 27.9648312 105.408249 19.4629003 105.529357 11.7422419 105.640875 7.73192805 105.699303 56.1964377 50.5871031 56.635628 50.0864867 57.0736267 49.5883461 57.5103344 49.0925508 59.6710229 46.644195 60.0978937 46.1597356 60.5227766 45.6767094 60.9455719 45.1949862C61.0158583 45.1148003 61.0860536 45.0346632 61.1561557 44.9545724L61.5756332 44.474559C61.6453542 44.3946418 61.7149778 44.3147654 61.784502 44.2349269L62.2004376 43.7563303 62.6138875 43.2785153C67.4225824 37.7080595 71.7034531 32.2705719 74.7450927 26.0348089 78.1214028 16.4988117 74.6843141 9.38305492 71.1757692 5.07151589 70.9048753 4.73862305 70.6335555 4.42244713 70.3649128 4.12316484 69.1688678 2.59214492 69.9832221.0413893594 72.2608727.0413893594 72.4464618.0413893594 72.6358217.0385210247 72.8289348.0348208586L73.2697649.0259509195C73.3691312.0240497295 73.4694324.0223224261 73.5706664.0210235721L73.9912023.0159855363 74.4220699.0115567163 74.715014.00896292759 75.4671436.00382294169 76.08898.00119436085 76.5669734 710542736e-23z" id="path-2"/><linearGradient x1="81.4682253%" y1="57.1884468%" x2="-8.23595123%" y2="79.1237607%" id="linearGradient-3"><stop stop-color="#FFF" stop-opacity="0" offset="0"/><stop stop-color="#D6F056" offset="100%"/></linearGradient><path d="M56.1964377 50.5871031C35.2204038 74.1922716 10.2554857 102.912753.779178886 113.701435c-1.825497686 2.078312-.056169155 4.040859 1.357888384 4.283963C72.8364108 130.140028 95.2838946 96.8230809 100.284077 81.5928901 107.125296 60.7550365 97.4590008 50.5871031 91.9885566 47.2713133 73.4385958 36.0276614 59.6753666 46.6721256 56.1964377 50.5871031z" id="path-4"/></defs><g id="控件" stroke="none" stroke-width="1" fill="none" fill-rule="evenodd"><g id="logo" transform="translate(17.933154, 30.135279)"><g id="路径"><use fill="#31CC79" xlink:href="#path-2"/><use fill-opacity=".600000024" fill="url(#radialGradient-1)" xlink:href="#path-2"/></g><g id="Fill-12-Copy"><use fill="#93E65C" xlink:href="#path-4"/><use fill-opacity=".75" fill="url(#linearGradient-3)" style="mix-blend-mode:overlay" xlink:href="#path-4"/></g></g></g></svg>